<svg xmlns="http://www.w3.org/2000/svg" version="1.1" id="Layer_1" x="0" y="0" width="164" height="60" style="enable-background:new 0 0 164 60" xml:space="preserve"><style>.st0{fill:#eeedef}</style><path class="st0" d="M23.2 8c-2.1-1.1-5.5-2-8-2C6 6 4.9 12.2 4.9 16.8v1.8H.5c-.3 0-.5.2-.5.4v4.5c0 .3.2.5.5.5h4.4v17c0 1.1-.3 1.4-1.3 1.5l-1.8.1c-.3 0-.5.3-.5.5v4c0 .3.2.5.5.5h14.9c.3 0 .5-.2.5-.5V43c0-.3-.2-.5-.5-.5l-4.3-.2V24.1h7.9c.3 0 .5-.2.5-.5V19c0-.3-.2-.5-.5-.5h-7.9v-2.3c0-3 1-4.3 3.5-4.3 1.5 0 3.5.5 5.1 1.3.1.1.3.1.4 0 .1-.1.3-.1.3-.3l1.6-4.3c.2-.2.1-.4-.1-.6zM44.9 40.4c-.1-.1-.2-.3-.3-.3-.1-.1-.3 0-.4.1-1.5 1-3.7 2.3-6.9 2.3-4.9 0-6.3-3.2-6.6-6 10.6-.2 16.2-3.8 16.2-10.6 0-5.1-3.7-8.3-9.7-8.3-10 .1-14.5 8.2-14.5 16.2 0 9.6 4.8 14.7 13.9 14.7 5 0 8.9-2.1 10.2-3.2.2-.1.2-.4.1-.6l-2-4.3zm-8.1-17.1c1.1 0 3.1.3 3.1 2.8 0 4.2-6.4 4.9-9.4 5 .1-3.7 2-7.8 6.3-7.8zM63.8 42.6l-2.8-.2V7.2c0-.3-.2-.5-.5-.5h-9.9c-.3 0-.5.2-.5.5v4.4c0 .3.2.5.5.5l1.9.1c.8.1 1.1.3 1.1 1v28c0 1.1-.4 1.3-1.3 1.5l-1.7.1c-.3 0-.5.3-.5.5v4c0 .3.2.5.5.5H64c.3 0 .5-.2.5-.5V43c-.1-.2-.3-.4-.7-.4zM92.9 18.6h-9.8c-.3 0-.5.2-.5.5v4.4c0 .3.2.5.5.5l1.7.1c.8 0 1.1.2 1.1 1.3v10.3c0 2.6-1.8 5.2-5.7 5.2-3.2 0-3.9-2.1-3.9-5.7V19c0-.3-.2-.5-.5-.5H66c-.3 0-.5.2-.5.5v4.4c0 .3.2.5.5.5l1.7.1c.8.1 1.1.3 1.1 1.2v11.4c0 6.8 3.1 10.2 9.2 10.2 3.5 0 6.8-1.4 8.9-3.7v3.2c0 5.4-2.3 8-7 8-1.7 0-2.9-.2-3.9-.5-.8-.3-1.1-.7-1.1-1.7v-2.6c0-.1-.1-.3-.1-.4-.1-.1-.3-.1-.4-.1l-5.4.5c-.3 0-.5.3-.5.5v7.7c0 .2.1.4.3.5 2.5 1.3 7.4 1.9 10.8 1.9 9.1 0 13.6-4.4 13.6-13.6V19c.2-.2 0-.4-.3-.4zM127.1 42.6l-2.7-.3-7.2-9.5 6.1-7.6c.7-.9 1.3-1.3 2-1.3l1.6-.1c.3 0 .5-.3.5-.5V19c0-.3-.2-.5-.5-.5h-11.4c-.3 0-.5.2-.5.5v4.3c0 .3.2.5.5.5l1.5.2-3.7 4.7-2.9-3.9c-.1-.2-.2-.5-.1-.6.1-.1.3-.3.5-.3l1.5-.1c.3 0 .5-.3.5-.5V19c0-.3-.2-.5-.5-.5H99.2c-.3 0-.5.2-.5.5v4.2c0 .3.2.5.5.5l2.6.3 6.7 9.3-6.4 8c-.7.9-1.1 1.1-2 1.2l-1.7.1c-.3 0-.5.3-.5.5v4.2c0 .3.2.5.5.5H110c.3 0 .5-.2.5-.5V43c0-.3-.2-.5-.5-.5l-1.8-.1 4-4.9 3.2 4.2c.2.3.3.5.3.7-.1.1-.2.1-.5.2l-1.7.1c-.3 0-.5.3-.5.5v4.2c0 .3.2.5.5.5H127c.3 0 .5-.2.5-.5V43c0-.2-.2-.4-.4-.4z"></path><path d="M148.6 49.3c5.1 0 9.2-.6 9.2-1.4 0-.8-4.1-1.4-9.2-1.4s-9.2.6-9.2 1.4c0 .7 4.1 1.4 9.2 1.4z" style="fill:#eeedef;enable-background:new"></path><path class="st0" d="M164 15.3C164 6.8 157.1 0 148.6 0s-15.4 6.8-15.4 15.3c0 8.8 5.8 17.8 13.4 22.9.5.5 1.3.8 2.1.8s1.5-.3 2.1-.8c7.4-5.1 13.2-14.1 13.2-22.9zm-13.4 15.2c0 1.1-.9 2.1-2.1 2.1-1.1 0-2.1-.9-2.1-2.1v-7.8c0-1.1.9-2.1 2.1-2.1 1.1 0 2.1.9 2.1 2.1v7.8zM155.4 8h-2.7c-.5 0-1 .5-1.5 1.4.1.3.2.7.2 1v.7c1 .6 1.7 1.5 1.8 2.5l1.1 11.2c.1 1.6-.8 3-2.3 4-.1.1-.3 0-.3-.2v-6c0-1.7-1.5-3.2-3.3-3-1.6.1-2.9 1.5-2.9 3.1v5.9c0 .1-.1.3-.3.2-1.5-.9-2.5-2.3-2.3-4l1.1-11.2c.1-1.1.8-1.9 1.8-2.5v-.7c0-.3.1-.7.2-1-.4-.9-1-1.4-1.5-1.4h-2.7c-.4 0-.8-.3-.8-.8s.3-.8.8-.8h2.7c.7 0 1.7.3 2.6 1.7.4-.3.9-.4 1.5-.4s1.1.1 1.5.4c.9-1.4 1.9-1.7 2.6-1.7h2.7c.4 0 .8.3.8.8 0 .4-.4.8-.8.8z"></path><path class="st0" d="M148.6 13.7c-1.1 0-2.1.9-2.1 2.1s.9 2.1 2.1 2.1c1.1 0 2.1-.9 2.1-2.1s-1-2.1-2.1-2.1z"></path></svg>